<?xml version="1.0" standalone="no"?>
<!DOCTYPE svg PUBLIC "-//W3C//DTD SVG 20010904//EN"
 "http://www.w3.org/TR/2001/REC-SVG-20010904/DTD/svg10.dtd">
<svg version="1.0" xmlns="http://www.w3.org/2000/svg"
 width="60.000000pt" height="60.000000pt" viewBox="0 0 60.000000 60.000000"
 preserveAspectRatio="xMidYMid meet">

<g transform="translate(0.000000,60.000000) scale(0.100000,-0.100000)"
fill="#fff" stroke="none">
<path d="M236 424 c-53 -64 -96 -120 -96 -124 0 -4 43 -60 96 -124 88 -108 99
-117 127 -114 17 2 32 8 34 14 2 6 -35 58 -82 115 -47 57 -85 106 -85 109 0 3
38 52 85 109 47 57 84 109 82 115 -2 6 -17 12 -34 14 -28 3 -39 -6 -127 -114z"/>
</g>
</svg>
