<?xml version="1.0" standalone="no"?>
<!DOCTYPE svg PUBLIC "-//W3C//DTD SVG 20010904//EN"
 "http://www.w3.org/TR/2001/REC-SVG-20010904/DTD/svg10.dtd">
<svg version="1.0" xmlns="http://www.w3.org/2000/svg"
 width="96.000000pt" height="96.000000pt" viewBox="0 0 96.000000 96.000000"
 preserveAspectRatio="xMidYMid meet">

<g transform="translate(0.000000,96.000000) scale(0.100000,-0.100000)"
fill="#fff" stroke="none">
<path d="M150 802 c-62 -31 -70 -61 -70 -280 0 -210 7 -247 54 -277 14 -9 43
-19 66 -22 l40 -6 0 -62 c0 -64 17 -95 52 -95 8 0 63 36 121 80 l106 80 128 0
c148 0 187 13 215 70 15 30 18 64 18 230 0 311 15 300 -400 300 -261 0 -299
-2 -330 -18z m647 -64 c23 -21 23 -26 23 -217 0 -254 10 -241 -182 -241 l-139
0 -99 -75 -99 -75 -3 72 -3 73 -55 3 c-39 2 -61 9 -77 24 -22 21 -23 27 -23
217 0 186 1 196 22 218 l21 23 296 0 c289 0 295 0 318 -22z"/>
</g>
</svg>
